<?xml version="1.0" encoding="UTF-8" standalone="no"?>
<!-- Created with Inkscape (http://www.inkscape.org/) -->

<svg
   xmlns:osb="http://www.openswatchbook.org/uri/2009/osb"
   xmlns:dc="http://purl.org/dc/elements/1.1/"
   xmlns:cc="http://creativecommons.org/ns#"
   xmlns:rdf="http://www.w3.org/1999/02/22-rdf-syntax-ns#"
   xmlns:svg="http://www.w3.org/2000/svg"
   xmlns="http://www.w3.org/2000/svg"
   xmlns:sodipodi="http://sodipodi.sourceforge.net/DTD/sodipodi-0.dtd"
   xmlns:inkscape="http://www.inkscape.org/namespaces/inkscape"
   version="1.1"
   id="svg100"
   xml:space="preserve"
   width="100"
   height="100"
   viewBox="0 0 100 100"
   sodipodi:docname="logo.svg"
   inkscape:version="0.92.5 (2060ec1f9f, 2020-04-08)"><metadata
     id="metadata106"><rdf:RDF><cc:Work
         rdf:about=""><dc:format>image/svg+xml</dc:format><dc:type
           rdf:resource="http://purl.org/dc/dcmitype/StillImage" /><dc:title></dc:title></cc:Work></rdf:RDF></metadata><defs
     id="defs104"><linearGradient
       id="linearGradient6186"
       osb:paint="solid"><stop
         style="stop-color:#ffad00;stop-opacity:0.24705882;"
         offset="0"
         id="stop6184" /></linearGradient><linearGradient
       id="linearGradient4698"
       osb:paint="solid"><stop
         style="stop-color:#ff7700;stop-opacity:1;"
         offset="0"
         id="stop4696" /></linearGradient><clipPath
       clipPathUnits="userSpaceOnUse"
       id="clipPath132"><path
         d="M 0,500 H 500 V 0 H 0 Z"
         id="path130"
         inkscape:connector-curvature="0" /></clipPath><clipPath
       clipPathUnits="userSpaceOnUse"
       id="clipPath168"><path
         d="M 0,500 H 500 V 0 H 0 Z"
         id="path166"
         inkscape:connector-curvature="0" /></clipPath></defs><sodipodi:namedview
     pagecolor="#ffffff"
     bordercolor="#666666"
     borderopacity="1"
     objecttolerance="10"
     gridtolerance="10"
     guidetolerance="10"
     inkscape:pageopacity="0"
     inkscape:pageshadow="2"
     inkscape:window-width="1366"
     inkscape:window-height="705"
     id="namedview102"
     showgrid="false"
     inkscape:zoom="4.5481107"
     inkscape:cx="89.442633"
     inkscape:cy="49.26323"
     inkscape:window-x="-8"
     inkscape:window-y="-8"
     inkscape:window-maximized="1"
     inkscape:current-layer="g108" /><g
     id="g108"
     inkscape:groupmode="layer"
     inkscape:label="3535967"
     transform="matrix(1.3333333,0,0,-1.3333333,0,99.999983)"><g
       id="g122"
       transform="matrix(0.30936076,0,0,0.30936076,45.249416,43.432997)"><path
         d="m 0,0 -3.712,13.855 h 53.054 l 3.394,19.008 H -28.48 l 13.894,-51.871 H 24.165 L 21.69,-32.865 h -48.255 l -18.78,65.728 h -66.463 l 5.431,-19.008 h 46.696 l 18.78,-65.727 H 37.604 L 46.867,0 Z"
         style="fill:#ff7700;fill-opacity:1;fill-rule:nonzero;stroke:none"
         id="path124"
         inkscape:connector-curvature="0" /></g><g
       id="g126"
       transform="matrix(0.30936076,0,0,0.30936076,-37.635178,-72.027283)"><g
         id="g128"
         clip-path="url(#clipPath132)"><g
           id="g134"
           transform="translate(255.8936,300.049)"><path
             d="m 0,0 c 0,-6.998 -5.673,-12.67 -12.67,-12.67 -6.997,0 -12.67,5.672 -12.67,12.67 0,6.997 5.673,12.67 12.67,12.67 C -5.673,12.67 0,6.997 0,0"
             style="fill:#ff7700;fill-opacity:1;fill-rule:nonzero;stroke:none"
             id="path136"
             inkscape:connector-curvature="0" /></g><g
           id="g138"
           transform="translate(298.9913,300.049)"><path
             d="m 0,0 c 0,-6.998 -5.673,-12.67 -12.67,-12.67 -6.997,0 -12.67,5.672 -12.67,12.67 0,6.997 5.673,12.67 12.67,12.67 C -5.673,12.67 0,6.997 0,0"
             style="fill:#ff7700;fill-opacity:1;fill-rule:nonzero;stroke:none"
             id="path140"
             inkscape:connector-curvature="0" /></g><g
           id="g142"
           transform="translate(202.8106,406.0851)"><path
             d="m 0,0 h 19.767 l 24.21,-84.735 H 24.21 Z"
             style="fill:#ffaa00;fill-opacity:1;fill-rule:nonzero;stroke:none"
             id="path144"
             inkscape:connector-curvature="0" /></g><g
           id="g146"
           transform="translate(314.7891,373.2219)"><path
             d="M 0,0 -9.264,-51.872 H -28.569 L -19.31,0 Z"
             style="fill:#ffaa00;fill-opacity:1;fill-rule:nonzero;stroke:none"
             id="path148"
             inkscape:connector-curvature="0" /></g><g
           id="g150"
           transform="translate(258.7491,406.0851)"><path
             d="M 0,0 14.902,-51.871 H -5.413 L -19.308,0 Z"
             style="fill:#ffaa00;fill-opacity:1;fill-rule:nonzero;stroke:none"
             id="path152"
             inkscape:connector-curvature="0" /></g></g></g><text
       transform="matrix(1,0,0,-1,209.1602,65.2393)"
       style="font-variant:normal;font-weight:normal;font-stretch:normal;font-size:27px;font-family:'Bungee Regular';-inkscape-font-specification:Bungee-Regular;writing-mode:lr-tb;fill:#ffffff;fill-opacity:1;fill-rule:nonzero;stroke:none"
       id="text156"><tspan
         x="0 17.549999 37.692001 56.105999 73.764 93.824997 99.900002 118.665 138.564 157.67999"
         y="0"
         sodipodi:role="line"
         id="tspan154">SUPER LOGO</tspan></text>
<text
       transform="matrix(1,0,0,-1,209.1611,42.5635)"
       style="font-variant:normal;font-weight:normal;font-stretch:normal;font-size:21.25230026px;font-family:'Bebas Neue';-inkscape-font-specification:BebasNeue-Regular;writing-mode:lr-tb;fill:#ffffff;fill-opacity:1;fill-rule:nonzero;stroke:none"
       id="text160"><tspan
         x="0 6.6307178 15.089133 22.994989 30.730825 34.131195 42.037048 50.963017 59.463936 67.66732 75.870712 79.951149 89.025887"
         y="0"
         sodipodi:role="line"
         id="tspan158">FAST SHOPPING</tspan></text>
<ellipse
       style="fill:#000000;fill-opacity:0.03015077;stroke-width:0.81883711"
       id="path4694"
       cx="37.629776"
       cy="-37.433128"
       transform="scale(1,-1)"
       rx="37.433128"
       ry="37.414379" /></g></svg>